<svg xmlns="http://www.w3.org/2000/svg" xmlns:xlink="http://www.w3.org/1999/xlink" width="60" height="52" viewBox="0 0 60 52">
    <defs>
        <linearGradient id="r17stv16yb" x1="0%" x2="100%" y1="50%" y2="50%">
            <stop offset="0%" stop-color="#00F2DB"/>
            <stop offset="100%" stop-color="#00F295"/>
        </linearGradient>
        <linearGradient id="phxj75d8ef" x1="0%" x2="100.001%" y1="50%" y2="50%">
            <stop offset="0%" stop-color="#00F2DB"/>
            <stop offset="100%" stop-color="#00F295"/>
        </linearGradient>
        <path id="abw6tzf88a" d="M.115 13.778c1.968 1.927 4.562 2.866 7.14 2.824v.984c0 .349.29.631.645.631h1.265c.356 0 .644-.282.644-.63V16.23c1.557-.436 3.027-1.252 4.253-2.453 3.851-3.77 3.851-9.882 0-13.652L.115 13.778z"/>
        <path id="addshfjc1e" d="M29.318 0c-.356 0-.644.283-.644.631v1.346c-1.557.436-3.027 1.252-4.253 2.453-3.851 3.77-3.851 9.882 0 13.652L38.368 4.43c-1.968-1.927-4.561-2.867-7.14-2.824V.631c0-.348-.29-.631-.645-.631h-1.265z"/>
        <filter id="u1g1rtf7od" width="165.3%" height="160.8%" x="-26.7%" y="-19.4%" filterUnits="objectBoundingBox">
            <feOffset dx="1" dy="2" in="SourceAlpha" result="shadowOffsetOuter1"/>
            <feGaussianBlur in="shadowOffsetOuter1" result="shadowBlurOuter1" stdDeviation="1.5"/>
            <feColorMatrix in="shadowBlurOuter1" values="0 0 0 0 0.617001299 0 0 0 0 0.617001299 0 0 0 0 0.617001299 0 0 0 0.5 0"/>
        </filter>
    </defs>
    <g fill="none" fill-rule="evenodd">
        <g>
            <g>
                <g>
                    <g>
                        <path fill="#FFF" d="M10.123 4.58h3.656L8.95 17.57c-.69 1.852-1.603 3.198-2.74 4.038-1.139.84-2.555 1.216-4.248 1.13v-3.113c.918.017 1.647-.174 2.186-.571.539-.398.967-1.038 1.285-1.92L0 4.58h3.736l3.456 8.717 2.93-8.717zM17.78 13.698c.688.683 1.563 1.024 2.623 1.024 1.06 0 1.938-.341 2.636-1.024.698-.683 1.047-1.56 1.047-2.633 0-1.072-.349-1.95-1.047-2.633s-1.576-1.025-2.636-1.025-1.935.342-2.624 1.025c-.689.683-1.033 1.56-1.033 2.633 0 1.072.344 1.95 1.033 2.633zm6.306-9.118h3.418v12.97h-3.418v-1.531c-1.025 1.263-2.464 1.894-4.32 1.894-1.766 0-3.281-.662-4.544-1.985-1.263-1.323-1.894-2.944-1.894-4.863 0-1.92.631-3.54 1.894-4.864C16.485 4.878 18 4.217 19.767 4.217c1.855 0 3.294.631 4.32 1.893V4.58zM36.485 4.217c1.448 0 2.645.476 3.59 1.427.945.95 1.418 2.265 1.418 3.942v7.963h-3.418v-7.548c0-.864-.24-1.526-.716-1.984-.477-.458-1.113-.687-1.908-.687-.883 0-1.59.268-2.12.804s-.795 1.34-.795 2.412v7.003h-3.418V4.58h3.418v1.453c.83-1.21 2.147-1.816 3.949-1.816M55.23 17.549L51.255 17.549 46.432 11.657 46.432 17.549 43.014 17.549 43.014 4.58 46.432 4.58 46.432 10.309 50.99 4.58 55.071 4.58 49.745 10.987zM56.482 17.549L56.482 8.691 59.901 4.58 59.901 17.549z" transform="translate(-190 -14) translate(190 14) translate(0 7.119) translate(0 20.979)"/>
                        <path fill="#00F395" d="M56.482 0.106L59.901 4.217 59.901 0.106z" transform="translate(-190 -14) translate(190 14) translate(0 7.119) translate(0 20.979)"/>
                    </g>
                    <g transform="translate(-190 -14) translate(190 14) translate(0 7.119) translate(21.418 .014)">
                        <mask id="vy7szk56ec" fill="#fff">
                            <use xlink:href="#abw6tzf88a"/>
                        </mask>
                        <path fill="url(#r17stv16yb)" d="M.115 13.778c1.968 1.927 4.562 2.866 7.14 2.824v.984c0 .349.29.631.645.631h1.265c.356 0 .644-.282.644-.63V16.23c1.557-.436 3.027-1.252 4.253-2.453 3.851-3.77 3.851-9.882 0-13.652L.115 13.778z" mask="url(#vy7szk56ec)"/>
                    </g>
                </g>
                <g transform="translate(-190 -14) translate(190 14)">
                    <use fill="#000" filter="url(#u1g1rtf7od)" xlink:href="#addshfjc1e"/>
                    <use fill="url(#phxj75d8ef)" xlink:href="#addshfjc1e"/>
                </g>
            </g>
        </g>
    </g>
</svg>
